#N canvas 3 35 1360 708 12;
#X obj 12 10 loadbang;
#X obj 309 169 *~, f 9;
#X obj 12 125 s \$0-pi;
#X obj 560 239 r \$0-pi;
#X obj 410 399 *~ 0.75;
#X obj 12 185 inlet;
#X obj 410 674 outlet~;
#X obj 410 624 *~;
#X obj 309 144 phasor~;
#X obj 733 4 inlet;
#X obj 845 94 route f g, f 14;
#X obj 845 169 osc~;
#X obj 845 194 *~, f 7;
#X obj 892 144 line~;
#X obj 845 144 line~;
#X obj 93 275 swap;
#X obj 12 315 f;
#X obj 93 405 s \$0-vel;
#X obj 93 375 / 127;
#X obj 12 245 route bend, f 12;
#X obj 12 275 t b f;
#X obj 12 345 +, f 5;
#X obj 12 375 mtof;
#X obj 12 405 s \$0-note;
#X obj 309 119 r \$0-note;
#X obj 733 154 line~;
#X msg 845 119 \$1 1;
#X msg 892 119 \$1 1;
#X obj 733 104 pack;
#X msg 733 129 \$1 \$2;
#X obj 190 399 *~ 0.75;
#X obj 190 674 outlet~;
#X obj 190 624 *~, f 6;
#X obj 781 154 line~;
#X obj 781 104 pack;
#X msg 781 129 \$1 \$2;
#X obj 410 649 lop~ 22000;
#X obj 190 649 lop~ 22000;
#X obj 560 504 lop~;
#X obj 176 178 t f f;
#X obj 12 215 spigot;
#X obj 176 208 sel 0;
#X msg 176 233 0;
#X obj 546 584 pd-adsr/adsr~, f 14;
#X obj 560 330 cos~;
#X obj 560 269 /~;
#X obj 560 479 /~, f 6;
#X obj 599 314 /~;
#X obj 599 344 *~, f 17;
#X obj 715 219 +~, f 19;
#X obj 715 244 *~;
#X obj 715 269 /~, f 5;
#X obj 599 374 -~;
#X obj 599 404 +~;
#X obj 599 454 cos~;
#X obj 715 319 /~ 1;
#X obj 715 294 wrap~;
#X obj 560 299 /~;
#X obj 599 429 /~, f 6;
#X obj 176 153 route switch;
#X obj 733 34 route poly;
#X obj 915 169 phasor~;
#X obj 915 194 *~, f 4;
#X obj 190 514 clip~ -1 1;
#X obj 410 514 clip~ -1 1;
#X obj 494 514 wrap~;
#X obj 410 439 *~;
#X obj 494 439 *~;
#X obj 190 439 *~;
#X obj 274 439 *~;
#X obj 733 64 route n t lerp pm lop rotation warp, f 37;
#X msg 333 374 \$1 5;
#X obj 333 399 line~;
#X msg 274 374 \$1 5;
#X obj 274 399 line~;
#X obj 274 344 == 0;
#X obj 494 464 +~ 1;
#X obj 494 489 *~ 0.5;
#X obj 494 539 *~ 2;
#X obj 494 564 -~ 1;
#X obj 274 514 wrap~;
#X obj 274 464 +~ 1;
#X obj 274 489 *~ 0.5;
#X obj 274 539 *~ 2;
#X obj 274 564 -~ 1;
#X obj 879 219 pack;
#X msg 879 244 \$1 \$2;
#X obj 879 269 line;
#X obj 190 334 cos~;
#X obj 309 229 +~;
#X obj 190 374 *~;
#X obj 190 309 /~;
#X obj 428 254 * 0.5;
#X obj 410 279 +~;
#X obj 410 334 cos~;
#X obj 410 374 *~, f 6;
#X obj 410 309 /~;
#X obj 75 115 * 2;
#X obj 75 140 s \$0-twopi;
#X obj 369 144 r \$0-twopi;
#X obj 428 229 r \$0-pi;
#X obj 940 144 r \$0-twopi;
#X obj 747 245 r \$0-twopi;
#X obj 599 269 r \$0-twopi;
#X obj 309 259 r \$0-twopi;
#X obj 638 404 r \$0-twopi;
#X obj 649 34 route adsr;
#X obj 649 59 s \$0-adsr;
#X obj 641 559 r \$0-adsr;
#X obj 952 94 s \$0-warp;
#X obj 333 314 r \$0-warp;
#X obj 915 219 s~ \$0-rotation;
#X obj 327 204 r~ \$0-rotation;
#X obj 560 529 s~ \$0-poly;
#X obj 449 344 r~ \$0-poly;
#X obj 546 559 r \$0-adsr-on;
#X obj 12 60 atan;
#X msg 12 35 1;
#X obj 12 85 * 4;
#N canvas 686 35 677 708 dsp-manager 0;
#X obj 135 359 switch~;
#X obj 104 329 f, f 5;
#X obj 122 109 route rel;
#X obj 104 134 f;
#X obj 104 159 t b f;
#X obj 104 184 delay;
#X msg 104 209 0;
#X obj 104 59 sel 0, f 13;
#X msg 192 109 1;
#X obj 104 234 t b f;
#X obj 167 304 loadbang;
#X msg 167 329 0;
#X obj 104 259 delay 5;
#X obj 8 9 r \$0-vel;
#X obj 201 259 == 0;
#X obj 104 289 spigot;
#X obj 122 84 r \$0-adsr;
#X obj 8 59 s \$0-adsr-on;
#X obj 8 34 t f f f, f 28;
#X connect 1 0 0 0;
#X connect 2 0 3 1;
#X connect 3 0 4 0;
#X connect 4 0 5 0;
#X connect 4 1 5 1;
#X connect 5 0 6 0;
#X connect 6 0 9 0;
#X connect 7 0 3 0;
#X connect 7 1 8 0;
#X connect 8 0 1 0;
#X connect 9 0 12 0;
#X connect 9 1 1 1;
#X connect 10 0 11 0;
#X connect 11 0 0 0;
#X connect 12 0 15 0;
#X connect 13 0 18 0;
#X connect 14 0 15 1;
#X connect 15 0 1 0;
#X connect 16 0 2 0;
#X connect 18 0 17 0;
#X connect 18 1 7 0;
#X connect 18 2 14 0;
#X restore 107 33 pd dsp-manager;
#X connect 0 0 117 0;
#X connect 1 0 49 0;
#X connect 1 0 89 0;
#X connect 3 0 45 0;
#X connect 4 0 66 0;
#X connect 4 0 67 0;
#X connect 5 0 40 0;
#X connect 7 0 36 0;
#X connect 8 0 1 0;
#X connect 9 0 59 0;
#X connect 9 0 60 0;
#X connect 9 0 106 0;
#X connect 10 0 26 0;
#X connect 10 1 27 0;
#X connect 11 0 12 0;
#X connect 12 0 49 1;
#X connect 13 0 12 1;
#X connect 14 0 11 0;
#X connect 15 0 18 0;
#X connect 15 1 16 0;
#X connect 16 0 21 0;
#X connect 18 0 17 0;
#X connect 19 0 20 0;
#X connect 19 1 15 0;
#X connect 20 0 16 0;
#X connect 20 1 21 1;
#X connect 21 0 22 0;
#X connect 22 0 23 0;
#X connect 24 0 8 0;
#X connect 25 0 45 1;
#X connect 25 0 47 1;
#X connect 25 0 50 1;
#X connect 26 0 14 0;
#X connect 27 0 13 0;
#X connect 28 0 29 0;
#X connect 29 0 25 0;
#X connect 30 0 68 0;
#X connect 30 0 69 0;
#X connect 32 0 37 0;
#X connect 33 0 53 1;
#X connect 34 0 35 0;
#X connect 35 0 33 0;
#X connect 36 0 6 0;
#X connect 37 0 31 0;
#X connect 38 0 113 0;
#X connect 39 0 41 0;
#X connect 39 1 40 1;
#X connect 40 0 19 0;
#X connect 41 0 42 0;
#X connect 42 0 17 0;
#X connect 43 0 7 1;
#X connect 43 0 32 1;
#X connect 44 0 46 0;
#X connect 45 0 57 0;
#X connect 45 0 52 1;
#X connect 46 0 38 0;
#X connect 47 0 48 0;
#X connect 48 0 52 0;
#X connect 49 0 50 0;
#X connect 50 0 51 0;
#X connect 51 0 56 0;
#X connect 52 0 53 0;
#X connect 53 0 58 0;
#X connect 54 0 46 1;
#X connect 55 0 48 1;
#X connect 56 0 55 0;
#X connect 57 0 44 0;
#X connect 58 0 54 0;
#X connect 59 0 39 0;
#X connect 60 0 70 0;
#X connect 61 0 62 0;
#X connect 62 0 111 0;
#X connect 63 0 32 0;
#X connect 64 0 7 0;
#X connect 65 0 78 0;
#X connect 66 0 64 0;
#X connect 67 0 76 0;
#X connect 68 0 63 0;
#X connect 69 0 81 0;
#X connect 70 0 28 0;
#X connect 70 1 34 0;
#X connect 70 2 34 1;
#X connect 70 2 28 1;
#X connect 70 2 85 1;
#X connect 70 3 10 0;
#X connect 70 4 85 0;
#X connect 70 5 61 0;
#X connect 70 6 109 0;
#X connect 71 0 72 0;
#X connect 72 0 67 1;
#X connect 72 0 69 1;
#X connect 73 0 74 0;
#X connect 74 0 68 1;
#X connect 74 0 66 1;
#X connect 75 0 73 0;
#X connect 76 0 77 0;
#X connect 77 0 65 0;
#X connect 78 0 79 0;
#X connect 79 0 7 0;
#X connect 80 0 83 0;
#X connect 81 0 82 0;
#X connect 82 0 80 0;
#X connect 83 0 84 0;
#X connect 84 0 32 0;
#X connect 85 0 86 0;
#X connect 86 0 87 0;
#X connect 87 0 38 1;
#X connect 88 0 90 0;
#X connect 89 0 91 0;
#X connect 89 0 93 0;
#X connect 90 0 30 0;
#X connect 91 0 88 0;
#X connect 92 0 93 1;
#X connect 93 0 96 0;
#X connect 94 0 95 0;
#X connect 95 0 4 0;
#X connect 96 0 94 0;
#X connect 97 0 98 0;
#X connect 99 0 1 1;
#X connect 100 0 92 0;
#X connect 101 0 62 1;
#X connect 102 0 51 1;
#X connect 103 0 57 1;
#X connect 103 0 47 0;
#X connect 104 0 91 1;
#X connect 104 0 96 1;
#X connect 105 0 58 1;
#X connect 106 0 107 0;
#X connect 108 0 43 1;
#X connect 110 0 75 0;
#X connect 110 0 71 0;
#X connect 112 0 89 1;
#X connect 114 0 95 1;
#X connect 114 0 90 1;
#X connect 115 0 43 0;
#X connect 116 0 118 0;
#X connect 117 0 116 0;
#X connect 118 0 97 0;
#X connect 118 0 2 0;
#X coords 0 708 1 707 100 100 0;
