#N canvas 914 35 449 708 12;
#X obj 408 384 outlet~;
#N canvas 686 35 677 708 midi-input 0;
#X obj 93 399 outlet;
#X obj 93 147 - 1;
#X obj 93 187 pack 0 0 0;
#X obj 93 122 poly 16 1, f 10;
#X obj 12 57 inlet;
#X obj 187 37 inlet;
#X obj 12 82 unpack, f 10;
#X obj 268 202 spigot;
#X obj 187 282 list prepend;
#X obj 187 307 list trim;
#X msg 434 252 all;
#X obj 434 125 sel 0 1, f 17;
#X msg 187 252 bend \$1;
#X msg 482 280 label \$1;
#X obj 482 255 symbol;
#X obj 12 122 poly 1 1, f 10;
#X obj 12 147 - 1;
#X obj 12 187 pack 0 0 0;
#X obj 93 359 spigot;
#X obj 12 359 spigot;
#X obj 268 252 spigot;
#X msg 307 232 1;
#X msg 332 232 0;
#X obj 434 155 t b b;
#N canvas 914 35 449 708 polystuff 0;
#X obj 12 91 sel 0 1, f 9;
#X obj 12 66 t f b, f 12;
#X msg 93 116 0;
#X obj 12 156 outlet;
#X obj 93 156 outlet;
#X msg 89 36 0;
#X obj 12 36 change;
#X obj 12 11 r \$0-poly;
#X obj 89 11 loadbang;
#X msg 12 116 1;
#X msg 42 116 1;
#X connect 0 0 9 0;
#X connect 0 1 10 0;
#X connect 1 0 0 0;
#X connect 1 1 2 0;
#X connect 2 0 4 0;
#X connect 2 0 3 0;
#X connect 5 0 1 0;
#X connect 6 0 1 0;
#X connect 7 0 6 0;
#X connect 8 0 5 0;
#X connect 9 0 3 0;
#X connect 10 0 4 0;
#X restore 51 334 pd polystuff;
#X msg 539 95 0;
#X obj 434 95 change;
#X msg 482 195 bend:_global;
#X msg 492 225 bend:_last;
#X obj 539 70 loadbang;
#X text 315 203 filter noteoffs;
#X obj 434 70 r \$0-bendMode;
#X obj 482 305 s \$0-bendMode-r;
#X obj 233 162 r \$0-bendRange;
#X obj 233 202 * 2;
#X obj 205 62 loadbang;
#X obj 205 87 t b b;
#X msg 205 112 1;
#X msg 237 112 16383;
#X obj 205 137 /;
#X obj 187 162 *;
#X obj 187 202 - 0.5;
#X obj 187 227 *, f 7;
#X connect 1 0 2 0;
#X connect 1 0 7 0;
#X connect 2 0 18 0;
#X connect 3 0 1 0;
#X connect 3 1 2 1;
#X connect 3 2 2 2;
#X connect 3 2 7 1;
#X connect 4 0 6 0;
#X connect 5 0 40 0;
#X connect 6 0 3 0;
#X connect 6 0 15 0;
#X connect 6 1 3 1;
#X connect 6 1 15 1;
#X connect 7 0 20 0;
#X connect 8 0 9 0;
#X connect 9 0 0 0;
#X connect 10 0 8 1;
#X connect 11 0 23 0;
#X connect 11 1 28 0;
#X connect 11 1 21 0;
#X connect 12 0 8 0;
#X connect 13 0 32 0;
#X connect 14 0 13 0;
#X connect 15 0 16 0;
#X connect 15 1 17 1;
#X connect 15 2 17 2;
#X connect 16 0 17 0;
#X connect 17 0 19 0;
#X connect 18 0 0 0;
#X connect 19 0 0 0;
#X connect 20 0 8 1;
#X connect 21 0 20 1;
#X connect 22 0 20 1;
#X connect 23 0 10 0;
#X connect 23 0 27 0;
#X connect 23 1 22 0;
#X connect 24 0 19 1;
#X connect 24 1 18 1;
#X connect 25 0 11 0;
#X connect 26 0 11 0;
#X connect 27 0 14 0;
#X connect 28 0 14 0;
#X connect 29 0 25 0;
#X connect 31 0 26 0;
#X connect 33 0 34 0;
#X connect 34 0 42 1;
#X connect 35 0 36 0;
#X connect 36 0 37 0;
#X connect 36 1 38 0;
#X connect 37 0 39 0;
#X connect 38 0 39 1;
#X connect 39 0 40 1;
#X connect 40 0 41 0;
#X connect 41 0 42 0;
#X connect 42 0 12 0;
#X restore 408 247 pd midi-input;
#X obj 408 188 inlet;
#X obj 408 218 route bend;
#X obj 101 154 cnv 15 215 199 empty \$0-text empty 20 12 0 14 #fcfcfc
#000000 0;
#X obj 251 273 nbx 4 15 0 1e+37 0 0 \$0-att \$0-att-r ms 50 8 0 10
#000000 #fcfcfc #000000 0 256;
#X obj 251 293 nbx 4 15 0 1e+37 0 0 \$0-dec \$0-dec-r ms 50 8 0 10
#000000 #fcfcfc #000000 0 256;
#X obj 251 313 nbx 4 15 0 1e+37 0 0 \$0-sus \$0-sus-r % 50 8 0 10 #000000
#fcfcfc #000000 0 256;
#X obj 251 333 nbx 4 15 0 1e+37 0 0 \$0-rel \$0-rel-r ms 50 8 0 10
#000000 #fcfcfc #000000 0 256;
#X obj 230 273 cnv 15 15 15 empty \$0-text att 0 6 0 10 #fcfcfc #000000
0;
#X obj 230 293 cnv 15 15 15 empty \$0-text dec 0 6 0 10 #fcfcfc #000000
0;
#X obj 230 313 cnv 15 15 15 empty \$0-text sus 0 6 0 10 #fcfcfc #000000
0;
#X obj 230 333 cnv 15 15 15 empty \$0-text rel 0 6 0 10 #fcfcfc #000000
0;
#X obj 156 192 nbx 4 15 0 99 0 0 \$0-teeth \$0-teeth-r teeth 0 -8 0
10 #000000 #fcfcfc #000000 0 256;
#X obj 106 192 nbx 4 15 2.01 99 0 0 \$0-order \$0-order-r order 0 -8
0 10 #000000 #fcfcfc #000000 0 256;
#X obj 266 225 nbx 4 15 0 1e+37 0 0 \$0-pm-g \$0-pm-g-r amount 0 -8
0 10 #000000 #fcfcfc #000000 0 256;
#X obj 266 192 nbx 4 15 0 1e+37 0 0 \$0-pm-f \$0-pm-f-r freq 0 -8 0
10 #000000 #fcfcfc #000000 0 256;
#X obj 281 159 cnv 15 15 15 empty \$0-text pm: 0 6 0 10 #fcfcfc #000000
0;
#X obj 131 159 cnv 15 15 15 empty \$0-text polygon: 0 6 0 10 #fcfcfc
#000000 0;
#X obj 257 253 cnv 15 15 15 empty \$0-text adsr: 0 6 0 10 #fcfcfc #000000
0;
#X obj 106 288 tgl 10 0 \$0-legato \$0-legato-r legato 15 4 0 10 #000000
#fcfcfc #000000 0 1;
#X obj 106 273 hradio 10 1 0 2 \$0-bendMode \$0-bendMode-r bend:_global
25 4 0 10 #000000 #fcfcfc #000000 0;
#X obj 106 303 hradio 10 1 0 2 \$0-poly \$0-poly-r mono 25 4 0 10 #000000
#fcfcfc #000000 0;
#X obj 134 253 cnv 15 15 15 empty \$0-text voices: 0 6 0 10 #fcfcfc
#000000 0;
#N canvas 1027 35 336 708 adsr 0;
#X obj 516 456 outlet;
#X obj 516 384 list prepend adsr;
#X obj 386 247 r \$0-att;
#X msg 386 271 att \$1;
#X obj 451 247 r \$0-dec;
#X msg 451 271 dec \$1;
#X obj 516 247 r \$0-sus;
#X obj 516 271 * 0.01;
#X msg 516 295 sus \$1;
#X msg 581 271 rel \$1;
#X obj 581 247 r \$0-rel;
#X obj 646 247 r \$0-legato;
#X msg 646 271 legato \$1;
#X obj 516 432 list trim;
#X obj 516 408 list prepend all;
#X msg 732 271 anticlick \$1;
#X obj 732 247 r \$0-anticlick;
#X connect 1 0 14 0;
#X connect 2 0 3 0;
#X connect 3 0 1 0;
#X connect 4 0 5 0;
#X connect 5 0 1 0;
#X connect 6 0 7 0;
#X connect 7 0 8 0;
#X connect 8 0 1 0;
#X connect 9 0 1 0;
#X connect 10 0 9 0;
#X connect 11 0 12 0;
#X connect 12 0 1 0;
#X connect 13 0 0 0;
#X connect 14 0 13 0;
#X connect 15 0 1 0;
#X connect 16 0 15 0;
#X restore 524 286 pd adsr;
#X obj 111 247 cnv 2 195 1 empty \$0-bar empty 20 12 0 14 #000000 #000000
0;
#X obj 258 166 cnv 2 1 69 empty \$0-bar empty 20 12 0 14 #000000 #000000
0;
#X obj 206 225 nbx 4 15 0 1e+37 0 0 \$0-lerp \$0-lerp-r lerp 0 -8 0
10 #000000 #fcfcfc #000000 0 256;
#X obj 587 384 outlet~;
#N canvas 1027 35 336 708 voices 0;
#X obj 223 112 symbol;
#X msg 223 141 label \$1;
#X msg 26 112 1;
#X msg 58 112 0;
#X obj 26 54 t b b;
#X obj 26 83 delay 10;
#X obj 26 15 r \$0-poly;
#X obj 223 170 s \$0-poly-r;
#X msg 223 83 mono;
#X msg 263 83 poly;
#X obj 223 54 sel 0, f 12;
#X obj 26 233 outlet;
#X obj 26 151 list prepend switch;
#X text 299 115 cambiar label del objeto de control de polifonía;
#X text 25 267 envía un mensaje noteoff a todas las voces;
#X obj 26 204 list trim;
#X obj 26 180 list prepend all;
#X connect 0 0 1 0;
#X connect 1 0 7 0;
#X connect 2 0 12 0;
#X connect 3 0 12 0;
#X connect 4 0 5 0;
#X connect 4 1 3 0;
#X connect 5 0 2 0;
#X connect 6 0 10 0;
#X connect 6 0 4 0;
#X connect 8 0 0 0;
#X connect 9 0 0 0;
#X connect 10 0 8 0;
#X connect 10 1 9 0;
#X connect 12 0 16 0;
#X connect 15 0 11 0;
#X connect 16 0 15 0;
#X restore 587 286 pd voices;
#X f 11;
#X obj 23 537 r \$0-error;
#X obj 106 225 nbx 4 15 0 99 0 0 \$0-sharp \$0-sharp-r sharp 0 -8 0
10 #000000 #fcfcfc #000000 0 256;
#X obj 646 154 inlet;
#N canvas 1027 35 336 689 route-inlet-messages 0;
#X obj 12 50 inlet;
#N canvas 550 65 267 659 state 0;
#X obj 66 30 inlet;
#N canvas 657 93 669 300 global 0;
#X obj 54 60 f;
#X obj 54 7 inlet;
#X obj 54 238 outlet;
#X obj 72 36 r \$0-poly;
#X obj 98 65 r \$0-legato;
#X obj 233 65 r \$0-out;
#X obj 143 94 r \$0-bendMode;
#X obj 188 123 r \$0-bendRange;
#X msg 54 181 add2 poly \$1 \, addcomma \, add2 legato \$2 \, addcomma
\, add2 bendMode \$3 \, addcomma \, add2 bendRange \$4 \, addcomma
\, add2 out \$5;
#X obj 54 152 pack f f f f f, f 26;
#X connect 0 0 9 0;
#X connect 1 0 0 0;
#X connect 3 0 0 1;
#X connect 4 0 9 1;
#X connect 5 0 9 4;
#X connect 6 0 9 2;
#X connect 7 0 9 3;
#X connect 8 0 2 0;
#X connect 9 0 8 0;
#X restore 66 175 pd global;
#X obj 66 59 t b b;
#X msg 98 88 set;
#X obj 66 204 s \$0-state;
#N canvas 711 277 669 300 adsr 0;
#X obj 54 60 f;
#X obj 54 7 inlet;
#X obj 54 224 outlet;
#X msg 54 181 add2 adsr att \$1 \, addcomma \, add2 adsr dec \$2 \,
addcomma \, add2 adsr sus \$3 \, addcomma \, add2 adsr rel \$4 \, addcomma
\,;
#X obj 54 152 pack f f f f, f 16;
#X obj 72 36 r \$0-att;
#X obj 90 65 r \$0-dec;
#X obj 126 94 r \$0-sus;
#X obj 163 123 r \$0-rel;
#X connect 0 0 4 0;
#X connect 1 0 0 0;
#X connect 3 0 2 0;
#X connect 4 0 3 0;
#X connect 5 0 0 1;
#X connect 6 0 4 1;
#X connect 7 0 4 2;
#X connect 8 0 4 3;
#X restore 137 175 pd adsr;
#N canvas 687 269 669 300 pm 0;
#X obj 54 60 f;
#X obj 54 7 inlet;
#X obj 54 252 outlet;
#X obj 54 152 pack f f;
#X msg 54 181 add2 pm amount \$1 \, addcomma \, add2 pm freq \$2 \,
addcomma;
#X obj 72 36 r \$0-pm-g;
#X obj 107 65 r \$0-pm-f;
#X connect 0 0 3 0;
#X connect 1 0 0 0;
#X connect 3 0 4 0;
#X connect 4 0 2 0;
#X connect 5 0 0 1;
#X connect 6 0 3 1;
#X restore 208 175 pd pm;
#N canvas 685 35 336 670 poly 0;
#X obj 54 60 f;
#X obj 54 7 inlet;
#X obj 54 252 outlet;
#X obj 72 34 r \$0-order;
#X obj 89 65 r \$0-teeth;
#X obj 125 94 r \$0-lerp;
#X obj 197 65 r \$0-rotate;
#X obj 233 94 r \$0-warp;
#X obj 54 152 pack f f f f f f, f 26;
#X obj 161 123 r \$0-sharp;
#X msg 54 181 add2 order \$1 \, addcomma \, add2 teeth \$2 \, addcomma
\, add2 lerp \$3 \, addcomma \, add2 sharp \$4 \, addcomma \, add2
rotate \$5 \, addcomma \, add2 warp \$6 \, addcomma;
#X connect 0 0 8 0;
#X connect 1 0 0 0;
#X connect 3 0 0 1;
#X connect 4 0 8 1;
#X connect 5 0 8 2;
#X connect 6 0 8 4;
#X connect 7 0 8 5;
#X connect 8 0 10 0;
#X connect 9 0 8 3;
#X connect 10 0 2 0;
#X restore 280 175 pd poly;
#X obj 66 146 t b b b b, f 31;
#X connect 0 0 2 0;
#X connect 1 0 4 0;
#X connect 2 0 8 0;
#X connect 2 1 3 0;
#X connect 3 0 4 0;
#X connect 5 0 4 0;
#X connect 6 0 4 0;
#X connect 7 0 4 0;
#X connect 8 0 1 0;
#X connect 8 1 5 0;
#X connect 8 2 6 0;
#X connect 8 3 7 0;
#X restore 618 276 pd state;
#X msg 513 91 0;
#X obj 543 62 loadbang;
#X msg 543 91 2;
#X obj 787 596 s \$0-error;
#X obj 22 145 s \$0-order-r;
#X obj 320 322 s \$0-poly-r;
#X obj 512 276 s \$0-bendRange;
#X obj 310 247 != 0;
#X obj 565 247 s \$0-out-r;
#X msg 603 91 99;
#X msg 573 91 3;
#N canvas 914 35 449 708 adsr 0;
#X obj 49 31 inlet;
#X obj 49 71 route att dec sus rel, f 23;
#X obj 59 126 s \$0-att-r;
#X obj 207 361 s \$0-error;
#X obj 309 45 loadbang;
#X msg 309 69 100;
#X msg 59 101 set \$1;
#X msg 98 181 set \$1;
#X obj 98 206 s \$0-dec-r;
#X msg 138 261 set \$1;
#X obj 88 231 s \$0-dec;
#X obj 49 151 s \$0-att;
#X obj 138 286 s \$0-sus-r;
#X obj 128 311 s \$0-sus;
#X msg 177 101 set \$1;
#X obj 177 126 s \$0-rel-r;
#X obj 167 151 s \$0-rel;
#X connect 0 0 1 0;
#X connect 1 0 6 0;
#X connect 1 0 11 0;
#X connect 1 1 7 0;
#X connect 1 1 10 0;
#X connect 1 2 9 0;
#X connect 1 2 13 0;
#X connect 1 3 14 0;
#X connect 1 3 16 0;
#X connect 1 4 3 0;
#X connect 4 0 5 0;
#X connect 5 0 12 0;
#X connect 6 0 2 0;
#X connect 7 0 8 0;
#X connect 9 0 12 0;
#X connect 14 0 15 0;
#X restore 247 247 pd adsr;
#N canvas 914 35 449 708 pm 0;
#X obj 209 279 s \$0-error;
#X obj 40 124 s \$0-pm-g-r;
#X obj 129 204 s \$0-pm-f-r;
#X obj 30 69 route amount freq, f 26;
#X obj 30 29 inlet;
#X obj 306 45 loadbang;
#X msg 306 69 0;
#X msg 40 99 set \$1;
#X msg 129 179 set \$1;
#X obj 30 149 s \$0-pm-g-r;
#X obj 119 229 s \$0-pm-f-r;
#X connect 3 0 7 0;
#X connect 3 0 9 0;
#X connect 3 1 8 0;
#X connect 3 1 10 0;
#X connect 3 2 0 0;
#X connect 4 0 3 0;
#X connect 5 0 6 0;
#X connect 6 0 2 0;
#X connect 6 0 1 0;
#X connect 7 0 1 0;
#X connect 8 0 2 0;
#X restore 200 218 pd pm;
#X obj 247 217 route adsr poly legato anticlick bendMode bendRange
out state, f 61;
#X obj 406 247 s \$0-anticlick;
#X obj 310 272 change;
#X msg 320 297 set \$1;
#X obj 310 347 s \$0-poly;
#X msg 22 120 set \$1;
#X obj 12 170 s \$0-order;
#X msg 69 200 set \$1;
#X obj 69 225 s \$0-teeth-r;
#X obj 59 250 s \$0-teeth;
#X msg 116 280 set \$1;
#X obj 116 305 s \$0-lerp-r;
#X obj 106 330 s \$0-lerp;
#X msg 163 120 set \$1;
#X obj 353 377 != 0;
#X obj 353 402 change;
#X msg 363 427 set \$1;
#X obj 363 452 s \$0-legato-r;
#X obj 353 477 s \$0-legato;
#X obj 459 277 != 0;
#X obj 459 302 change;
#X msg 469 327 set \$1;
#X obj 459 377 s \$0-bendMode;
#X obj 469 352 s \$0-bendMode-r;
#X obj 163 145 s \$0-sharp-r;
#X obj 153 170 s \$0-sharp;
#X obj 12 90 route order teeth lerp sharp pm, f 34;
#X obj 671 336 route rotate warp;
#X msg 681 366 set \$1;
#X obj 681 391 s \$0-rotate-r;
#X obj 671 416 s \$0-rotate;
#X obj 729 446 != 0;
#X obj 729 471 change;
#X msg 739 496 set \$1;
#X obj 739 521 s \$0-warp-r;
#X obj 729 546 s \$0-warp;
#X connect 0 0 41 0;
#X connect 2 0 10 0;
#X connect 2 0 7 0;
#X connect 2 0 23 0;
#X connect 2 0 26 0;
#X connect 2 0 32 0;
#X connect 2 0 38 0;
#X connect 2 0 44 0;
#X connect 2 0 49 0;
#X connect 3 0 4 0;
#X connect 3 0 2 0;
#X connect 3 0 11 0;
#X connect 3 0 12 0;
#X connect 4 0 8 0;
#X connect 9 0 17 0;
#X connect 11 0 39 0;
#X connect 12 0 6 0;
#X connect 15 0 13 0;
#X connect 15 1 9 0;
#X connect 15 2 29 0;
#X connect 15 3 16 0;
#X connect 15 4 34 0;
#X connect 15 5 8 0;
#X connect 15 6 10 0;
#X connect 15 7 1 0;
#X connect 15 8 42 0;
#X connect 17 0 18 0;
#X connect 17 0 19 0;
#X connect 18 0 7 0;
#X connect 20 0 6 0;
#X connect 22 0 23 0;
#X connect 25 0 26 0;
#X connect 28 0 39 0;
#X connect 29 0 30 0;
#X connect 30 0 31 0;
#X connect 30 0 33 0;
#X connect 31 0 32 0;
#X connect 34 0 35 0;
#X connect 35 0 36 0;
#X connect 35 0 37 0;
#X connect 36 0 38 0;
#X connect 41 0 20 0;
#X connect 41 0 21 0;
#X connect 41 1 22 0;
#X connect 41 1 24 0;
#X connect 41 2 27 0;
#X connect 41 2 25 0;
#X connect 41 3 28 0;
#X connect 41 3 40 0;
#X connect 41 4 14 0;
#X connect 41 5 15 0;
#X connect 42 0 43 0;
#X connect 42 0 45 0;
#X connect 42 1 46 0;
#X connect 42 2 5 0;
#X connect 43 0 44 0;
#X connect 46 0 47 0;
#X connect 47 0 48 0;
#X connect 47 0 50 0;
#X connect 48 0 49 0;
#X restore 646 183 pd route-inlet-messages;
#X obj 679 360 r \$0-state;
#X obj 679 384 outlet;
#X msg 23 587 se recibió un mensaje desconocido;
#X obj 23 612 print polywave~;
#N canvas 686 35 677 708 polygon 0;
#X obj 34 221 list prepend poly;
#X obj 34 132 list prepend n;
#X obj 141 132 list prepend t;
#X obj 576 108 r \$0-pm-f;
#X obj 688 118 r \$0-pm-g;
#X obj 576 132 list prepend f;
#X obj 688 142 list prepend g;
#X obj 576 172 list prepend pm;
#X obj 34 308 outlet;
#X obj 253 132 list prepend lerp;
#X obj 253 108 r \$0-lerp;
#X obj 34 108 r \$0-order;
#X obj 141 84 r \$0-teeth;
#X obj 386 132 list prepend lop;
#X obj 141 108 * 0.01;
#X obj 386 32 * 2.7;
#X obj 34 284 list trim;
#X obj 34 260 list prepend all;
#X obj 328 241 list prepend rotation;
#X obj 328 216 r \$0-rotate;
#X obj 391 288 r \$0-warp;
#X obj 391 313 list prepend warp;
#X obj 386 7 r \$0-sharp;
#X obj 386 57 t f f;
#X obj 386 107 *, f 5;
#X obj 418 82 * 0.3;
#X connect 0 0 17 0;
#X connect 1 0 0 0;
#X connect 2 0 0 0;
#X connect 3 0 5 0;
#X connect 4 0 6 0;
#X connect 5 0 7 0;
#X connect 6 0 7 0;
#X connect 7 0 0 0;
#X connect 9 0 0 0;
#X connect 10 0 9 0;
#X connect 11 0 1 0;
#X connect 12 0 14 0;
#X connect 13 0 0 0;
#X connect 14 0 2 0;
#X connect 15 0 23 0;
#X connect 16 0 8 0;
#X connect 17 0 16 0;
#X connect 18 0 0 0;
#X connect 19 0 18 0;
#X connect 20 0 21 0;
#X connect 21 0 0 0;
#X connect 22 0 15 0;
#X connect 23 0 24 0;
#X connect 23 1 25 0;
#X connect 24 0 13 0;
#X connect 25 0 24 1;
#X restore 678 286 pd polygon;
#X text 916 254 sintetizador poligonal como lo describen Christoph
Hohnerlein y Maximilian Rest \, cuenta con controles para: \; -order
(de 2.01 a 99 \, determina el orden del polígono regular o la cantidad
de lados [puede no ser número entero]) \; -teeth (de 0 a 99 \, determina
el tamaño del ángulo por el cual cada lado es desplazado creando
"dientes" \, a efectos del sonido agrega armónicos y para valores
relativamente altos genera distorsión) \; -round (de 0 a 99 \, controla
un lowpass tiende a suavizar el sonido pero en conjunción con valores
de teeth que produzcan distorsión surgen comportamientos más interesantes
ya que el filtro no es aplicado sobre la forma de onda como sintesis
sustractiva sino sobre la señal polar del polígono inmediatamente
antes de convertirla en forma de onda) \; -pm amount (determina la
intensidad de la modulación de fase sobre fi) \; -pm freq (determina
la frecuencia de la moduladora) \; \; la documentación utilizada para
el desarrollo del sintetizador es el paper Continuous Order Polygonal
Waveform Synthesis y se puede encontrar en https://quod.lib.umich.edu/cgi/p/pod/dod-idx/continuous-order-polygonalwaveform-synthesis.pdf?c=icmc
\; idno=bbp2372.2016.104 \; format=pdf \; \; dylan martin;
#X obj 408 325 clone ./polywave-voice~ 16;
#X obj 206 192 nbx 4 15 0 1e+37 0 0 \$0-rotate \$0-rotate-r rotate
0 -8 0 10 #000000 #fcfcfc #000000 0 256;
#X obj 159 227 tgl 10 0 \$0-warp \$0-warp-r warp 15 4 0 10 #000000
#fcfcfc #000000 0 1;
#X msg 23 562 bang;
#X connect 1 0 40 0;
#X connect 2 0 3 0;
#X connect 3 0 1 1;
#X connect 3 1 1 0;
#X connect 24 0 40 1;
#X connect 29 0 40 1;
#X connect 30 0 43 0;
#X connect 32 0 33 0;
#X connect 34 0 35 0;
#X connect 36 0 37 0;
#X connect 38 0 40 1;
#X connect 40 0 0 0;
#X connect 40 1 28 0;
#X connect 43 0 36 0;
#X coords 0 -1 1 1 217 207 2 100 150;
